# xmcd
#
# Track frame offsets:
#	150
#	16610
#	30454
#	44839
#	59494
#	74363
#	90016
#	107163
#	120990
#	136807
#	151241
#	165665
#	181782
#	196710
#	211475
#	225045
#	241046
#	254089
#	273448
#	290462
#	305703
#	324010
#
# Disc length: 4533 seconds
#
# Revision: 0
# Processed by: cddbd v1.5.2PL0 Copyright (c) Steve Scherf et al.
# Submitted via: dBpowerAMP V4.0
#
DISCID=1a11b316
DTITLE=JOÃO NETO and FREDERICO - AO VIVO
DYEAR=1900
DGENRE=SERTANEJO
TTITLE0=SE ENTREGA DE UMA VEZ
TTITLE1=PEDE PRA SAIR
TTITLE2=NÃO É CHUVA DE VERÃO
TTITLE3=ENQUANTO O SOL BRILHAR
TTITLE4=MEU ANJO
TTITLE5=MENINA
TTITLE6=VOU TE PROCURAR
TTITLE7=AQUI NÃO PICA-PAU
TTITLE8=SÓ DE VOCÊ
TTITLE9=EU QUERO DE NAMORAR
TTITLE10=DIFICIL
TTITLE11=PEGA FOGO CABARÉ
TTITLE12=FILME DE AMOR
TTITLE13=DETONOU
TTITLE14=AGARRA, AGARRA
TTITLE15=PRA DIZER ADEUS
TTITLE16=GALERA DO BUTECO
TTITLE17=POUT-POURRI DE MODÃO NOITE TRISTE QUEBRADAS DA NOITE BLUSA VERMELHA
TTITLE18=EU E VOCÊ
TTITLE19=É PRA ACABAR
TTITLE20=TEU OLHAR
TTITLE21=POUT-POURRI
EXTD=AO VIVO
EXTT0=
EXTT1=
EXTT2=
EXTT3=
EXTT4=
EXTT5=
EXTT6=
EXTT7=
EXTT8=
EXTT9=
EXTT10=
EXTT11=
EXTT12=
EXTT13=
EXTT14=
EXTT15=
EXTT16=
EXTT17=
EXTT18=
EXTT19=
EXTT20=
EXTT21=
PLAYORDER=
